<?xml version="1.0" encoding="UTF-8"?>
<svg width="191" height="100" version="1.1" viewBox="0 0 191 100" xmlns="http://www.w3.org/2000/svg">
 <rect width="191" height="100" ry=".65925" fill="#fff" stroke-linecap="round" stroke-linejoin="round" stroke-width="2.7054"/>
 <path d="m-24-24h24v24h-24z" fill="none"/>
 <g transform="matrix(1.3386 0 0 1.3386 15.95 143.87)">
  <g fill="#1398bd">
   <path d="m22.878-89.773c-28.995 0-32.861 27.062-34.794 38.66h3.8621c1.2874-6.4427 4.5097-9.9858 9.6688-10.631 7.732-0.9665 13.531-7.732 15.464-13.531l-2.8995-1.933 1.933-1.933c1.933-1.933 3.8737-4.8325 6.7655-10.631z" stroke-width="1.933"/>
   <g stroke-width=".46894">
    <path d="m20.811-64.894q0.84262-1.2822 1.0258-1.5387 0.08243-0.13738 0.23813-0.13738 0.06411 0 0.13738 0.02748 2.1615 0.74187 3.8651 1.8593 0.17402 0.10991 0.17402 0.28392 0 0.09159-0.05495 0.2015-0.14654 0.3572-0.85178 1.3464-0.12822 0.19234-0.25645 0.19234-0.10991 0-0.26561-0.12822-1.7951-1.2731-4.0116-2.1065zm-0.56785 11.018q1.4746 0.61365 2.7019 0.61365 1.3738 0 1.3738-1.0716 0-0.50374-0.42131-0.97084-0.32972-0.38467-1.4379-1.2914-0.96168-0.79682-1.3372-1.4746-0.29308-0.54037-0.29308-1.1723 0-1.4379 1.2914-2.8118 0.90673 0.61365 1.3372 1.0258 0.07327 0.08243 0.07327 0.1557 0 0.0092-0.10991 0.2015-0.54953 0.65944-0.54953 1.3372 0 0.3572 0.37551 0.75103 0.29308 0.3114 1.1815 1.0075 1.3189 1.0258 1.8043 1.9417 0.37551 0.67776 0.37551 1.4929 0 1.4654-1.2364 2.2714-0.96168 0.63196-2.2714 0.63196-1.1907 0-2.0699-0.30224-0.27477-0.09159-0.29308-0.37551-0.16486-1.383-0.49458-1.96zm-1.0441-2.2348q0.22897 0.88841 0.63196 1.4196 0.17402 0.2015 0.17402 0.33888 0 0.17402-0.16486 0.37551-0.44878 0.57701-0.90673 0.89757-0.85178 0.69608-1.5753 0.69608-1.8135 0-2.5736-2.4729-0.02748-0.12822-0.02748-0.19234 0-0.08243 0.09159-0.16486 0.39383-0.39383 1.1357-0.96168 0.10075-0.09159 0.17402-0.09159 0.07327 0 0.12822 0.16486 0.60449 1.4837 1.0899 1.4837 0.33888 0 0.65944-0.26561 0.6686-0.54953 1.1632-1.2273zm7.895-1.6944q0.33888-0.27477 1.383-1.0258 0.01832-0.0092 0.11906-0.05495 0.03664-0.01832 0.07327-0.01832 0.05495 0 0.12822 0.07327 1.9234 1.5662 2.8759 3.5262 0.06411 0.10075 0.06411 0.17402 0 0.10075-0.13738 0.23813-0.42131 0.47626-1.3738 1.0899-0.08243 0.05495-0.1557 0.05495-0.14654 0-0.23813-0.21066-0.98916-2.2622-2.7385-3.8467z"/>
    <path d="m36.564-65.7q1.4379 0 2.4821-0.10991 2.0882-0.24729 3.6178-0.53122 0.74187-0.13738 1.0166-0.33888 0.1557-0.12822 0.33888-0.12822 0.1557 0 0.32972 0.14654 0.75103 0.54037 1.2639 1.2639 0.12822 0.1557 0.12822 0.33888 0 0.3114-0.39383 0.52206-0.2015 0.11906-0.73271 0.59533-0.47626 0.50374-4.2955 4.3779l0.07327 0.07327q1.8409-1.0716 3.8467-1.0716 2.1615 0 3.4254 1.3372 1.0991 1.154 1.0991 2.9217 0 2.4363-2.1615 3.9658-1.8684 1.328-5.1198 1.8135-0.21981 0.04579-0.32056 0.04579-0.24729 0-0.41215-0.3114-0.40299-0.76019-1.2914-1.4196 7.034-0.90673 7.034-4.3413 0-1.1907-0.86094-1.8043-0.71439-0.50374-1.8409-0.50374-1.5936 0-3.2422 0.76019-1.3372 0.6228-2.4821 1.6394-1.1082 0.98-1.8318 1.8593-0.17402 0.21066-0.30224 0.21066-0.11907 0-0.24729-0.12822-0.64112-0.56785-1.0899-1.1449-0.12822-0.16486-0.12822-0.22897 0-0.10075 0.14654-0.21981 1.4379-1.3189 3.4346-3.4163 1.8409-2.0058 4.3322-4.955-1.1815 0.24729-3.5811 0.75103-0.4671 0.13738-0.73271 0.24729-0.25645 0.12822-0.39383 0.12822-0.21065 0-0.37551-0.3572-0.28392-0.49458-0.73271-1.9875z"/>
    <path d="m59.025-66.652q1.4288 0.57701 2.0974 1.0441 0.26561 0.18318 0.26561 0.39383 0 0.17402-0.21066 0.37551-0.27477 0.30224-0.57701 0.80598-2.2897 4.3963-3.2514 5.9716l0.01832 0.03663q1.1632-0.96168 2.2897-0.96168 1.4654 0 2.134 1.2364 0.43047 0.79682 0.60449 2.308 0.12822 1.154 0.36636 1.5662 0.24729 0.42131 0.72355 0.42131 0.92505 0 1.7677-0.89757 1.2548-1.328 1.8867-3.0591 0.37551 0.84262 1.0899 1.557 0.21066 0.18318 0.21066 0.39383 0 0.17402-0.07327 0.32056-0.56785 1.1815-1.612 2.3264-1.4654 1.5753-3.4529 1.5753-1.5112 0-2.189-0.95252-0.58617-0.83346-0.76019-2.6927-0.12822-1.4288-0.47626-1.9783-0.27477-0.43963-0.76019-0.43963-1.1632 0-2.363 1.5936-0.98916 1.3189-2.1981 4.1765-0.10991 0.25645-0.26561 0.25645-0.07327 0-0.18318-0.03664-0.86094-0.34804-1.4471-0.80598-0.16486-0.10991-0.16486-0.23813 0-0.10991 0.09159-0.26561 3.8284-7.492 5.4953-11.293 0.76019-1.7219 0.94336-2.7385z"/>
   </g>
  </g>
  <g stroke-width=".46894">
   <path d="m70.116-63.675q0.99832-0.03663 2.9858-0.3114 7.5744-1.1082 11.265-1.5936 0.0641-0.0092 0.10991-0.0092 0.25645 0 0.28393 0.21065 0.18317 0.81514 0.21065 1.6578 0 0.27477-0.3572 0.27477-1.2731 0.08243-2.2897 0.41215-2.4637 0.84262-3.7368 2.5279-1.0441 1.3738-1.0441 3.0041 0 3.6269 4.9916 3.9383 0.41215 0 0.41215 0.28393 0 0.87925-0.21066 1.612-0.0733 0.39383-0.34804 0.39383-2.9492 0-4.9641-1.6303-1.96-1.6028-1.96-4.1673 0-2.0424 1.0716-3.6086 0.87009-1.2548 2.5278-2.3355v-0.03664q-3.3155 0.6228-6.3013 1.2364-0.97084 0.22897-1.1815 0.30224-0.34804 0.14654-0.41215 0.14654-0.23813 0-0.3572-0.28393-0.29308-0.60449-0.69608-2.0241z"/>
   <path d="m89.441-61.532q1.4929 0.23813 2.0424 0.44878 0.33888 0.10991 0.33888 0.32056 0 0.10075-0.13738 0.44879-0.14655 0.53122-0.14655 1.9508 0 1.0075 0.16486 2.4546 0.30225 2.5736 1.1907 2.5736 0.73271 0 1.383-2.2165 0.45794 0.71439 1.0533 1.3097 0.17402 0.1557 0.17402 0.3572 0 0.09159-0.0366 0.24729-0.93421 2.4363-2.6103 2.4363-1.0716 0-1.8592-1.0716-0.65944-0.88841-0.89757-2.2073-0.44879-2.3538-0.44879-4.7077 0-1.5204-0.21065-2.3447zm7.5011 2.2897q0.0366-0.01832 0.6686-0.40299 0.36635-0.21981 0.63196-0.36636 0.11906-0.06411 0.18318-0.06411 0.0824 0 0.21065 0.11906 1.1449 0.90673 1.9692 2.3447 0.75103 1.3189 0.97084 2.6561 0.0183 0.09159 0.0183 0.14654 0 0.13738-0.21065 0.26561-0.70524 0.44879-1.2364 0.65944-0.10991 0.05495-0.18318 0.05495-0.14654 0-0.21066-0.26561-0.85177-3.288-2.8118-5.1473z"/>
   <path d="m110.54-66.954q1.5021 0.18318 2.1981 0.43047 0.33888 0.11907 0.33888 0.33888 0 0.18318-0.0916 0.30224-0.18318 0.21981-0.26561 0.67776-0.0275 0.14654-0.0824 0.50374-0.0366 0.26561-0.0733 0.43047 2.4729-0.23813 4.8817-0.78766 0.0733-0.01832 0.12822-0.01832 0.14654 0 0.19234 0.21066 0.18317 0.78766 0.18317 1.2731 0 0.30224-0.39383 0.37551-2.7385 0.55869-5.3213 0.78766-0.11907 1.154-0.13738 1.8959 1.1357-0.38467 2.8759-0.41215 0.29308-0.79682 0.3114-1.3738 1.2181 0.37552 1.6669 0.69608 0.33887 0.21981 0.33887 0.41215 0 0.10991-0.1099 0.22897-0.0824 0.07327-0.23813 0.36636 1.96 0.52206 2.9492 1.8135 0.88841 1.1449 0.88841 2.766 0 2.0791-1.6761 3.5353-1.3372 1.1632-3.5353 1.7493-0.19233 0.05495-0.3114 0.05495-0.3114 0-0.5129-0.40299-0.20149-0.40299-1.1082-1.1632 1.0441-0.21981 2.1065-0.65944 0.87926-0.36636 1.3738-0.71439 1.502-1.0899 1.502-2.8118 0-1.1357-0.7785-1.8959-0.60449-0.58617-1.5387-0.8243-1.4929 2.8393-3.5445 4.9092 0.055 0.2015 0.32972 0.85178 0.0549 0.10991 0.0549 0.19234 0 0.12822-0.2015 0.27477-0.55869 0.41215-1.1265 0.65028-0.11907 0.06411-0.18318 0.06411-0.0916 0-0.19233-0.1557-0.17402-0.30224-0.31141-0.73271-1.96 1.3555-3.2697 1.3555-1.0258 0-1.5845-0.69608-0.49458-0.61365-0.49458-1.6303 0-1.8318 1.4929-3.5903 1.1998-1.4013 2.8942-2.2439 0.0275-1.0075 0.0916-2.3447-0.68692 0.02748-1.2548 0.02748l-0.6686-0.0092q-0.85177 0-1.0716-0.03664-0.3114-0.02748-0.33888-0.43047-0.0366-0.24729-0.0549-0.71439-0.0275-0.54953-0.0366-0.71439 0.86093 0.10075 1.9783 0.10075 0.18317 0 1.6578-0.01832 0.1557-1.3647 0.1557-2.0516 0-0.43047-0.0824-0.84262zm1.6944 10.844q1.2914-1.4837 2.1707-3.2422-1.1815 0.02748-2.3996 0.43047 0.0275 1.5662 0.22897 2.8118zm-2.0699-1.9692q-1.1815 0.84262-1.8318 1.8501-0.58617 0.91589-0.58617 1.7493 0 0.34804 0.21066 0.54953 0.16486 0.16486 0.41215 0.16486 0.78766 0 2.1706-1.0899-0.32972-1.9966-0.37551-3.2239z"/>
   <path d="m127.86-66.222-0.48542 3.1323 2.4729-1.9325 0.92505 1.5753-2.9858 1.1815 2.9858 1.1632-0.92505 1.5936-2.4729-1.9692 0.48542 3.1507h-1.8959l0.49458-3.1323-2.4637 1.9325-0.93421-1.5753 2.9858-1.1815-2.9858-1.1632 0.93421-1.5753 2.4637 1.9325-0.49458-3.1323z"/>
  </g>
 </g>
</svg>
