<?xml version="1.0" encoding="UTF-8"?>
<!-- Created with Inkscape (http://www.inkscape.org/) -->
<svg width="95.227mm" height="11.041mm" version="1.1" viewBox="0 0 95.227 11.041" xmlns="http://www.w3.org/2000/svg">
 <g transform="translate(1.2324 -3.6301)">
  <text transform="matrix(2.8937 0 0 2.8937 1407.3 -627.4)" fill="#f86969" font-family="sans-serif" font-size="40px" style="line-height:1.25;shape-inside:url(#rect15127);white-space:pre" xml:space="preserve"/>
  <g transform="matrix(.59138 0 0 .59138 8.223 12.363)">
   <g fill="#f86969" stroke-width=".55321">
    <path d="m18.599-8.7373q-0.36736 0.28092-0.84278 0.28092-0.04322 0-0.08644 0-0.51863-0.021608-0.9076-0.38897-0.32414-0.28092-0.32414-0.69151 0-0.49702 0.41058-0.79956 0.15127-0.12966 0.25932-0.2161 0.12966-0.10805-0.02161-0.19449-1.1885-0.77795-3.0253-1.5559-0.43219-0.19449-0.56185-0.64829-0.04323-0.12966-0.04323-0.25932 0-0.30254 0.19449-0.56185l0.04322-0.06483q0.36736-0.43219 0.9076-0.58346 0.23771-0.06483 0.4538-0.06483 0.30253 0 0.62668 0.10805 2.2042 0.9076 3.652 1.7072 0.77795 0.43219 1.1237 1.3398 0.08644 0.2161 0.08644 0.4538 0 0.15127-0.04322 0.32414-0.10805 0.41058-0.43219 0.64829-0.84278 0.69151-1.4695 1.1669zm-4.7757 12.274q-0.56185-0.06483-0.97243-0.47541-0.38897-0.38898-0.47541-0.97244l-0.043211-0.36736q-0.02163-0.064831-0.02163-0.15127 0-0.34575 0.28092-0.60507 0.25932-0.2377 0.60507-0.2377 0.08644 0 0.19449 0.02163 1.1237 0.21609 2.1394 0.21609 1.88 0 1.88-1.4046 0-0.9076-0.79956-2.1394-0.79956-1.2534-1.7072-2.161-0.47541-0.47541-1.0157-0.92921-0.38897-0.32414-0.38897-0.82117 0-0.47541 0.36736-0.79956l0.19449-0.15127q0.38897-0.32414 0.886-0.32414 0.04322 0 0.06483 0 0.54024 0.021608 0.92921 0.41058 0.73473 0.69151 0.886 0.86439 1.8368 1.8584 2.7228 3.3711 0.9076 1.5127 0.9076 2.9821 0 1.0589-0.36736 1.8368-0.34575 0.75634-0.97243 1.1669-0.62668 0.43219-1.383 0.60507-0.73473 0.19449-1.6423 0.19449-1.1453 0-2.269-0.12966zm12.685-3.9978q0.10805 0.25932 0.10805 0.51863 0 0.23771-0.10805 0.49702-0.19449 0.49702-0.69151 0.77795l-0.41058 0.21609q-0.2161 0.10805-0.47541 0.10805-0.19449 0-0.38897-0.086439-0.4538-0.19449-0.60507-0.64829-0.92921-2.7444-2.3771-4.9702-0.19449-0.28092-0.19449-0.62668 0-0.12966 0.02161-0.28093 0.12966-0.47541 0.56185-0.71312l0.12966-0.064829q0.32414-0.19449 0.69151-0.19449 0.17288 0 0.34575 0.043222 0.54024 0.12966 0.84278 0.58346 1.4695 2.2042 2.5499 4.8406zm-15.602-2.8093q0.34575-0.32414 0.79956-0.32414 0.0432 0 0.06483 0.021608 0.51863 0.021608 0.82116 0.41058l0.10805 0.12966q0.30254 0.38897 0.30254 0.90761 0 0.60507-0.43219 1.0156-1.6856 1.5991-3.5872 2.9173-0.32414 0.2161-0.71312 0.2161-0.12965 0-0.25932-0.02163-0.51863-0.10805-0.84278-0.54024l-0.19449-0.30253q-0.21609-0.30254-0.21609-0.64829 0-0.12966 0.021629-0.25932 0.12965-0.49702 0.56185-0.77795 1.9449-1.2317 3.5656-2.7444z" style="white-space:pre"/>
    <path d="m33.056-11.201q-0.06483 0-0.12966 0-0.43219 0-0.77795-0.28092-0.38897-0.32414-0.41058-0.84278v-0.30254q-0.0216-0.49702 0.34576-0.84278 0.34575-0.32414 0.82117-0.32414 0.02161 0 0.04322 0 0.2161 0 0.43219 0 4.43 0 6.9799-0.15127 0.17288-0.02161 0.36736-0.04323 0.15127-0.02161 0.28092-0.02161 0.41058 0 0.79956 0.15127 0.51863 0.19449 0.84278 0.62668 0.2161 0.30254 0.2161 0.62668 0 0.10805-0.02161 0.23771-0.08644 0.4538-0.49702 0.71312-0.06483 0.04322-0.17288 0.10805-3.155 2.2906-4.9054 3.7817-0.02161 0.021608-0.02161 0.043222 0.02161 0.021608 0.06483 0.021608 0.95082-0.28093 2.0529-0.28093 2.8525 0 4.6677 1.5127 1.8368 1.4911 1.8368 3.7817 0 3.155-2.5715 4.9486-2.3338 1.6423-6.7638 1.6423-0.43219 0-0.886 0-0.56185-0.021621-1.0156-0.38896-0.43219-0.36736-0.58346-0.92922l-0.12966-0.38897q-0.02161-0.12966-0.02161-0.25932 0-0.28093 0.19449-0.51863 0.28092-0.32415 0.6699-0.32415 0.04322 0 0.08644 0 0.886 0.086439 1.6856 0.086439 2.6148 0 4.2139-0.77795 2.1177-1.0157 2.1177-3.0902 0-1.2966-1.1237-2.1177-1.1237-0.82117-2.9821-0.82117-1.1885 0-2.2474 0.30253-1.0589 0.28092-1.9665 0.86438-0.9076 0.58346-1.5991 1.1885-0.69151 0.58346-1.4911 1.4262-0.34575 0.38897-0.86438 0.38897 0 0-0.02161 0-0.49702 0-0.84278-0.36736l-0.28093-0.30253q-0.34575-0.36737-0.34575-0.86439 0-0.56185 0.41058-0.92921 1.4478-1.2966 4.6245-4.041 3.1982-2.7444 3.9546-3.4143 0.0216-0.04322 0-0.06483 0-0.04322-0.04322-0.04322-0.69151 0.02161-2.4419 0.12966-1.7288 0.08644-2.0745 0.10805-0.2161 0.0216-0.47541 0.04322z" style="white-space:pre"/>
    <path d="m55.962-13.988q0.23771-0.47541 0.73473-0.6699 0.23771-0.10805 0.47541-0.10805 0.25932 0 0.49702 0.10805l0.75634 0.30253q0.4538 0.17288 0.60507 0.64829 0.04322 0.15127 0.04322 0.30253 0 0.30254-0.19449 0.56185-0.30254 0.4538-0.6699 1.0373-0.34575 0.58346-0.79956 1.383-0.4538 0.77795-0.75634 1.2966-0.28092 0.49702-0.82117 1.4695-0.54024 0.95082-0.6699 1.2101-0.02161 0.021608 0 0.043222 0.02161 0.021608 0.06483 0.021608 1.1021-0.60507 2.3554-0.60507 1.2317 0 1.9449 0.75634 0.71312 0.75634 0.77795 2.1394 0 0.17288 0 1.6423 0.02161 1.4695 0.10805 2.0097 0.08644 1.1885 1.383 1.1885 1.1237 0 1.9665-1.0805 0.86438-1.0805 1.4046-2.8741 0.12966-0.43219 0.56185-0.56185 0.12966-0.043222 0.25932-0.043222 0.28092 0 0.49702 0.17288l0.38897 0.32414q0.4538 0.36736 0.62668 0.92922 0.06483 0.2377 0.06483 0.47541 0 0.30254-0.10805 0.60507-1.9449 5.0567-6.1371 5.0567-1.7072 0-2.6364-0.886-0.92922-0.86439-0.99404-2.161-0.04322-0.62668-0.08644-2.0313-0.02161-1.4262-0.04322-1.8152-0.10805-1.2317-1.2966-1.2317-1.0589 0-1.9665 0.92921-0.886 0.90761-1.5127 2.3771-0.54024 1.1237-1.2966 3.652-0.17288 0.49702-0.62668 0.73473-0.28092 0.12966-0.56185 0.12966-0.19449 0-0.38897-0.064831l-0.69151-0.21609q-0.49702-0.17288-0.71312-0.64829-0.10805-0.2377-0.10805-0.49702 0-0.23771 0.08644-0.45381 1.2534-3.1118 3.544-7.8227 2.3122-4.7325 3.3711-6.6558 0.10805-0.19449 0.30254-0.56185 0.19449-0.38897 0.25932-0.51863z" style="white-space:pre"/>
   </g>
   <g stroke-width=".55321">
    <path d="m81.829-11.936q0.30254-0.19449 0.6699-0.19449 0.12965 0 0.25932 0.02161 0.49702 0.10805 0.75633 0.54024l0.2161 0.34575q0.19449 0.30254 0.19449 0.64829 0 0.15127-0.04319 0.32414-0.15126 0.51863-0.60506 0.75634-0.47542 0.25932-1.0589 0.54024-0.06483 0.043222-1.1885 0.60507-1.1237 0.54024-1.7072 0.84278-0.56185 0.28093-1.5343 0.82117-0.97244 0.54024-1.6856 0.99404-1.4695 0.95082-2.269 1.9233-0.77795 0.97243-0.77795 2.0529 0 2.4203 4.5596 2.4203 2.766 0 5.921-0.56185 0.10805 0 0.1945 0 0.36736 0 0.66989 0.23771 0.36737 0.30253 0.36737 0.79955v0.60507q-0.02164 0.56185-0.38898 0.97243-0.34575 0.43219-0.9076 0.49702-2.6796 0.34575-5.7698 0.34575-7.6498 0-7.6498-4.9702 0-1.6856 0.9076-3.047 0.92921-1.383 2.5932-2.6364 0.12966-0.10805 0.04322-0.23771-1.1021-2.0745-2.4851-5.2295-0.10805-0.2377-0.10805-0.49702 0-0.23771 0.08644-0.4538 0.2161-0.49702 0.69151-0.69151l0.41058-0.17288q0.23771-0.08644 0.47541-0.08644t0.47541 0.10805q0.49702 0.19449 0.69151 0.69151 0.9076 2.2474 2.2042 4.7325 0.06483 0.15127 0.2161 0.064829 1.0373-0.60507 2.7444-1.5127 1.7288-0.92922 1.8584-0.99404 0.69151-0.43219 0.97243-0.60507z" style="white-space:pre"/>
    <path d="m91.532-12.044q-0.51863-0.10805-0.77794-0.56185-0.19449-0.30254-0.19449-0.62668 0-0.15127 0.04319-0.32414l0.06483-0.19449q0.12966-0.51863 0.58346-0.77795 0.30254-0.17288 0.64829-0.17288 0.15127 0 0.32415 0.04322 2.766 0.6699 6.2668 1.2101 0.51864 0.06483 0.79956 0.49702 0.19449 0.28093 0.19449 0.62668 0 0.12966-0.04319 0.28092l-0.04319 0.2161q-0.12966 0.54024-0.58346 0.84278-0.34575 0.23771-0.73473 0.23771-0.12966 0-0.2377-0.02161-2.9389-0.49702-6.31-1.275zm-3.4575 2.3338q0.04319-0.51863 0.43219-0.84278 0.34575-0.28092 0.73473-0.28092 0.08644 0 0.17287 0.02161l0.4538 0.06483q0.49702 0.06483 0.79956 0.47541 0.2377 0.32414 0.2377 0.71312 0 0.10805-0.02164 0.2161-0.30254 1.7072-0.56185 3.7169 0 0.043222 0.04319 0.064828 0.04319 0.021608 0.06483 0 2.8309-1.9881 6.31-1.9881 2.7876 0 4.43 1.4695 1.6639 1.4695 1.6639 3.544 0 1.1885-0.36736 2.1826-0.34576 0.97243-1.1669 1.8368-0.82117 0.84278-2.0745 1.383-1.2534 0.56185-3.1334 0.84278-1.2966 0.17288-2.8309 0.17288-0.69151 0-1.4478-0.043205-0.56184-0.02163-1.0156-0.38898-0.43219-0.36737-0.60506-0.92922l-0.12966-0.41058q-0.04319-0.12966-0.04319-0.25932 0-0.28093 0.2161-0.51863 0.25932-0.30254 0.64829-0.30254 0.04319 0 0.08644 0 1.2101 0.10805 2.269 0.10805 2.5932 0 4.2355-0.71312 2.2906-1.0157 2.2906-3.0253 0-1.0589-0.92921-1.7504-0.90761-0.69151-2.3554-0.69151-1.8584 0-3.4359 0.6699-1.5775 0.64829-2.6148 1.88-0.08644 0.10805-0.15127 0.19449-0.36737 0.47541-0.86439 0.69151-0.32414 0.15126-0.64829 0.15126-0.19449 0-0.38897-0.064825l-0.06483-0.021631q-0.51864-0.12965-0.79956-0.58346-0.2377-0.34575-0.2377-0.73473 0-0.12966 0.02164-0.23771 0.51863-3.2847 0.77794-6.6125z" style="white-space:pre"/>
    <path d="m105.28-11.849q0-0.4538 0.30254-0.79956 0.32414-0.36736 0.82116-0.36736 0 0 0.0216 0h0.79955q0.49702 0 0.82117 0.38897 0.28092 0.32414 0.28092 0.75634 0 0.06483 0 0.12966-0.0864 0.86438-0.0864 1.4046 0 0.49702 0 0.95082 0 2.0313 0.12966 3.6952 0.51863 5.316 2.3554 5.316 1.0156 0 1.9665-3.0686 0.12966-0.38897 0.51864-0.47541 0.0864-0.021608 0.17287-0.021608 0.28092 0 0.47542 0.23771l0.58346 0.69151q0.36736 0.47541 0.47541 1.0373 0.0216 0.17288 0.0216 0.32415 0 0.41058-0.17288 0.79955-0.92921 2.1394-1.9232 3.0686-0.97244 0.9076-2.1826 0.9076-1.9449 0-3.3279-1.9233-1.3614-1.9449-1.7936-6.1155-0.23771-2.4635-0.23771-5.921zm12.166 1.2534q-0.17287-0.23771-0.17287-0.51863 0-0.15127 0.0432-0.30254 0.12966-0.4538 0.56185-0.58346l0.36736-0.12966q0.28093-0.08644 0.56185-0.08644 0.25932 0 0.54024 0.06483 0.54024 0.17288 0.84278 0.6699 1.1021 1.7288 1.9449 4.1923 0.84277 2.4635 1.1885 4.6893 0.0216 0.12966 0.0216 0.23771 0 0.41058-0.23771 0.79955-0.30253 0.47541-0.84277 0.69151l-0.51863 0.19449q-0.17288 0.064831-0.34576 0.064831-0.25931 0-0.49702-0.15127-0.41058-0.25932-0.47541-0.73472-0.34576-2.5067-1.1021-4.927-0.75634-2.4419-1.88-4.1707z" style="white-space:pre"/>
    <path d="m133.43-13.988q0.23771-0.47541 0.73473-0.6699 0.23771-0.10805 0.47541-0.10805 0.25932 0 0.49702 0.10805l0.75634 0.30253q0.45381 0.17288 0.60508 0.64829 0.0432 0.15127 0.0432 0.30253 0 0.30254-0.19449 0.56185-0.30253 0.4538-0.66989 1.0373-0.34576 0.58346-0.79956 1.383-0.4538 0.77795-0.75634 1.2966-0.28092 0.49702-0.82116 1.4695-0.54025 0.95082-0.6699 1.2101-0.0216 0.021608 0 0.043222 0.0216 0.021608 0.0648 0.021608 1.1021-0.60507 2.3554-0.60507 1.2318 0 1.9449 0.75634 0.71312 0.75634 0.77795 2.1394 0 0.17288 0 1.6423 0.0216 1.4695 0.10805 2.0097 0.0864 1.1885 1.383 1.1885 1.1237 0 1.9665-1.0805 0.86438-1.0805 1.4046-2.8741 0.12966-0.43219 0.56186-0.56185 0.12965-0.043222 0.25931-0.043222 0.28093 0 0.49703 0.17288l0.38896 0.32414q0.45381 0.36736 0.62668 0.92922 0.0648 0.2377 0.0648 0.47541 0 0.30254-0.10805 0.60507-1.9449 5.0567-6.1371 5.0567-1.7072 0-2.6364-0.886-0.92922-0.86439-0.99405-2.161-0.0432-0.62668-0.0864-2.0313-0.0216-1.4262-0.0432-1.8152-0.10805-1.2317-1.2966-1.2317-1.0589 0-1.9665 0.92921-0.886 0.90761-1.5127 2.3771-0.54024 1.1237-1.2966 3.652-0.17287 0.49702-0.62667 0.73473-0.28093 0.12966-0.56185 0.12966-0.19449 0-0.38898-0.064831l-0.69151-0.21609q-0.49702-0.17288-0.71311-0.64829-0.10805-0.2377-0.10805-0.49702 0-0.23771 0.0864-0.45381 1.2534-3.1118 3.544-7.8227 2.3122-4.7325 3.3711-6.6558 0.10805-0.19449 0.30254-0.56185 0.19448-0.38897 0.25931-0.51863z" style="white-space:pre"/>
   </g>
   <path d="m-13.987-11.027c-2.4489 1.3422-2.9143 2.2562 0.09106 2.1063z" fill="#f86969"/>
   <g stroke-linecap="round" stroke-linejoin="round">
    <path d="m-4.4635-0.10159 0.98737 0.25171c0.11239 0.028651 0.18045 0.14236 0.15261 0.25495l-0.60485 2.4461c-0.027841 0.11259-0.14073 0.18017-0.25312 0.15152l-0.98737-0.25171c-0.11239-0.028651-0.18045-0.14236-0.15261-0.25495l0.60485-2.4461c0.027841-0.11259 0.14073-0.18017 0.25312-0.15152z" fill="#f86969" stroke-width=".24945"/>
    <path d="m-11.354-14.677c-1.9871 2.5e-5 -3.598 1.6109-3.598 3.598 7.39e-4 1.2146 0.61427 2.3469 1.6314 3.0108-0.30873 1.3846-0.23079 2.8274 0.2253 4.1707 1.3815 4.0429 5.7787 6.2003 9.8216 4.8188 2.9768-0.5854 4.8253-4.0618 7.7897-4.7074 1.5317-0.32653-1.874-1.7137-4.0759-2.5241-2.8413-1.0457-4.259-1.0849-8.2383-5.3182-0.271-1.7542-1.7808-3.0487-3.5558-3.0487z" stroke-dasharray="1.17286, 0.195476" stroke-width=".19548"/>
    <path d="m-4.3052 2.016 0.19985 0.52302c0.065819 0.17226-0.024524 0.34959-0.20256 0.39762l-2.9566 0.79754c-0.17804 0.048026-0.37436-0.051986-0.44018-0.22424l-0.19985-0.52302c-0.065819-0.17226 0.024524-0.34959 0.20256-0.39762l2.9566-0.79754c0.17804-0.048026 0.37436 0.051986 0.44018 0.22424z" fill="#f86969" stroke-width="1.0822"/>
    <path d="m-4.6504 2.7942 0.4264-0.67803c0.045141-0.071779 0.13927-0.093224 0.21105-0.048083l1.2495 0.78577c0.071779 0.045141 0.093224 0.13927 0.048083 0.21105l-0.4264 0.67803c-0.045141 0.071779-0.13927 0.093224-0.21105 0.048083l-1.2495-0.78577c-0.071779-0.045141-0.093224-0.13927-0.048083-0.21105z" fill="#f86969" stroke-width="1.3135"/>
   </g>
  </g>
 </g>
</svg>
