<?xml version="1.0" encoding="UTF-8"?>
<!-- Created with Inkscape (http://www.inkscape.org/) -->
<svg width="118.39mm" height="13.727mm" version="1.1" viewBox="0 0 118.39 13.727" xmlns="http://www.w3.org/2000/svg">
 <g transform="translate(1.2324 -3.6301)">
  <text transform="matrix(2.8937 0 0 2.8937 1407.3 -627.4)" fill="#f86969" font-family="sans-serif" font-size="40px" style="line-height:1.25;shape-inside:url(#rect15127);white-space:pre" xml:space="preserve"/>
  <g transform="matrix(.59138 0 0 .59138 8.223 12.363)">
   <g fill="#f86969" stroke-width=".68776">
    <path d="m27.012-7.2709q-0.45672 0.34925-1.0478 0.34925-0.05373 0-0.10746 0-0.64478-0.026864-1.1284-0.48358-0.40298-0.34925-0.40298-0.8597 0-0.61791 0.51045-0.99403 0.18806-0.16119 0.32239-0.26866 0.16119-0.13433-0.02686-0.24179-1.4776-0.96716-3.7612-1.9343-0.53731-0.24179-0.69851-0.80597-0.05374-0.16119-0.05374-0.32239 0-0.37612 0.24179-0.69851l0.05373-0.0806q0.45672-0.53731 1.1284-0.72537 0.29552-0.0806 0.56418-0.0806 0.37612 0 0.7791 0.13433 2.7403 1.1284 4.5403 2.1224 0.96716 0.53731 1.397 1.6657 0.10746 0.26866 0.10746 0.56418 0 0.18806-0.05373 0.40298-0.13433 0.51045-0.53731 0.80597-1.0478 0.8597-1.8269 1.4507zm-5.9373 15.26q-0.69851-0.080599-1.209-0.59104-0.48358-0.48358-0.59104-1.209l-0.05372-0.45671q-0.02689-0.080599-0.02689-0.18806 0-0.42985 0.34925-0.75224 0.32239-0.29552 0.75224-0.29552 0.10746 0 0.24179 0.026891 1.397 0.26865 2.6597 0.26865 2.3373 0 2.3373-1.7463 0-1.1284-0.99403-2.6597-0.99403-1.5582-2.1224-2.6866-0.59104-0.59104-1.2627-1.1552-0.48358-0.40298-0.48358-1.0209 0-0.59104 0.45672-0.99403l0.24179-0.18806q0.48358-0.40298 1.1015-0.40298 0.05373 0 0.0806 0 0.67164 0.026864 1.1552 0.51045 0.91343 0.8597 1.1015 1.0746 2.2836 2.3104 3.3851 4.191 1.1284 1.8806 1.1284 3.7075 0 1.3164-0.45672 2.2836-0.42985 0.9403-1.209 1.4507-0.7791 0.53731-1.7194 0.75224-0.91343 0.2418-2.0418 0.2418-1.4239 0-2.8209-0.1612zm15.77-4.9701q0.13433 0.32239 0.13433 0.64478 0 0.29552-0.13433 0.61791-0.24179 0.6179-0.8597 0.96716l-0.51045 0.26865q-0.26866 0.13433-0.59104 0.13433-0.24179 0-0.48358-0.10746-0.56418-0.24179-0.75224-0.80597-1.1552-3.4119-2.9552-6.1791-0.24179-0.34925-0.24179-0.7791 0-0.16119 0.02686-0.34925 0.16119-0.59104 0.69851-0.88657l0.16119-0.080597q0.40298-0.24179 0.8597-0.24179 0.21492 0 0.42985 0.053735 0.67164 0.16119 1.0478 0.72537 1.8269 2.7403 3.1701 6.0179zm-19.397-3.4925q0.42985-0.40298 0.99403-0.40298 0.05371 0 0.0806 0.026864 0.64478 0.026864 1.0209 0.51045l0.13433 0.16119q0.37612 0.48358 0.37612 1.1284 0 0.75224-0.53731 1.2627-2.0955 1.9881-4.4597 3.6269-0.40298 0.26866-0.88656 0.26866-0.16119 0-0.32239-0.026891-0.64478-0.13433-1.0478-0.67164l-0.24179-0.37612q-0.26865-0.37612-0.26865-0.80597 0-0.16119 0.02689-0.32239 0.16119-0.61791 0.6985-0.96716 2.4179-1.5313 4.4328-3.4119z" style="white-space:pre"/>
    <path d="m44.985-10.334q-0.0806 0-0.16119 0-0.53731 0-0.96716-0.34925-0.48358-0.40298-0.51045-1.0478v-0.37612q-0.02686-0.61791 0.42985-1.0478 0.42985-0.40298 1.0209-0.40298 0.02686 0 0.05373 0 0.26866 0 0.53731 0 5.5075 0 8.6776-0.18806 0.21492-0.02686 0.45672-0.05374 0.18806-0.02686 0.34925-0.02686 0.51045 0 0.99403 0.18806 0.64478 0.24179 1.0478 0.7791 0.26866 0.37612 0.26866 0.7791 0 0.13433-0.02686 0.29552-0.10746 0.56418-0.61791 0.88657-0.0806 0.05373-0.21492 0.13433-3.9224 2.8478-6.0985 4.7015-0.02686 0.026864-0.02686 0.053735 0.02686 0.026864 0.0806 0.026864 1.1821-0.34925 2.5522-0.34925 3.5463 0 5.803 1.8806 2.2836 1.8537 2.2836 4.7015 0 3.9224-3.197 6.1522-2.9015 2.0418-8.4089 2.0418-0.53731 0-1.1015 0-0.69851-0.02689-1.2627-0.48358-0.53731-0.45671-0.72537-1.1552l-0.16119-0.48358q-0.02686-0.1612-0.02686-0.32239 0-0.34926 0.24179-0.64478 0.34925-0.40299 0.83284-0.40299 0.05373 0 0.10746 0 1.1015 0.10746 2.0955 0.10746 3.2507 0 5.2388-0.96716 2.6328-1.2627 2.6328-3.8418 0-1.6119-1.397-2.6328-1.397-1.0209-3.7075-1.0209-1.4776 0-2.794 0.37612-1.3164 0.34925-2.4448 1.0746-1.1284 0.72537-1.9881 1.4776-0.8597 0.72537-1.8537 1.7731-0.42985 0.48358-1.0746 0.48358 0 0-0.02686 0-0.61791 0-1.0478-0.45671l-0.34926-0.37612q-0.42985-0.45672-0.42985-1.0746 0-0.69851 0.51045-1.1552 1.8-1.6119 5.7492-5.0239 3.9761-3.4119 4.9164-4.2448 0.02686-0.05373 0-0.0806 0-0.05373-0.05373-0.05373-0.8597 0.02686-3.0358 0.16119-2.1493 0.10746-2.5791 0.13433-0.26866 0.02686-0.59104 0.05373z" style="white-space:pre"/>
    <path d="m73.463-13.799q0.29552-0.59104 0.91343-0.83283 0.29552-0.13433 0.59104-0.13433 0.32239 0 0.61791 0.13433l0.9403 0.37612q0.56418 0.21493 0.75224 0.80597 0.05373 0.18806 0.05373 0.37612 0 0.37612-0.24179 0.69851-0.37612 0.56418-0.83284 1.2896-0.42985 0.72537-0.99403 1.7194-0.56418 0.96716-0.9403 1.6119-0.34925 0.61791-1.0209 1.8269-0.67164 1.1821-0.83284 1.5045-0.02686 0.026864 0 0.053735 0.02686 0.026864 0.0806 0.026864 1.3701-0.75224 2.9284-0.75224 1.5313 0 2.4179 0.9403 0.88657 0.9403 0.96716 2.6597 0 0.21493 0 2.0418 0.02686 1.8269 0.13433 2.4985 0.10746 1.4776 1.7194 1.4776 1.397 0 2.4448-1.3433 1.0746-1.3433 1.7463-3.5731 0.16119-0.53731 0.69851-0.69851 0.16119-0.053735 0.32239-0.053735 0.34925 0 0.61791 0.21493l0.48358 0.40298q0.56418 0.45672 0.7791 1.1552 0.0806 0.29552 0.0806 0.59104 0 0.37612-0.13433 0.75224-2.4179 6.2866-7.6298 6.2866-2.1224 0-3.2776-1.1015-1.1552-1.0746-1.2358-2.6866-0.053735-0.7791-0.10746-2.5254-0.026864-1.7731-0.053735-2.2567-0.13433-1.5313-1.6119-1.5313-1.3164 0-2.4448 1.1552-1.1015 1.1284-1.8806 2.9552-0.67164 1.397-1.6119 4.5403-0.21492 0.61791-0.7791 0.91344-0.34925 0.16119-0.69851 0.16119-0.24179 0-0.48358-0.080599l-0.8597-0.26865q-0.61791-0.21492-0.88656-0.80597-0.13433-0.29552-0.13433-0.6179 0-0.29552 0.10746-0.56418 1.5582-3.8687 4.406-9.7254 2.8746-5.8836 4.191-8.2746 0.13433-0.24179 0.37612-0.69851 0.24179-0.48358 0.32239-0.64478z" style="white-space:pre"/>
   </g>
   <g stroke-width=".68776">
    <path d="m105.62-11.247q0.37612-0.24179 0.83284-0.24179 0.16119 0 0.32239 0.02686 0.61791 0.13433 0.94029 0.67164l0.26866 0.42985q0.24179 0.37612 0.24179 0.80597 0 0.18806-0.0537 0.40298-0.18805 0.64478-0.75223 0.9403-0.59105 0.32239-1.3164 0.67164-0.0806 0.053735-1.4776 0.75224-1.397 0.67164-2.1224 1.0478-0.69851 0.34925-1.9074 1.0209-1.209 0.67164-2.0955 1.2358-1.8269 1.1821-2.8209 2.391-0.96716 1.209-0.96716 2.5522 0 3.009 5.6686 3.009 3.4388 0 7.3612-0.6985 0.13433 0 0.2418 0 0.45671 0 0.83283 0.29552 0.45672 0.37612 0.45672 0.99403v0.75224q-0.0269 0.6985-0.48359 1.209-0.42985 0.53731-1.1284 0.61791-3.3313 0.42985-7.1731 0.42985-9.5104 0-9.5104-6.1791 0-2.0955 1.1284-3.7881 1.1552-1.7194 3.2239-3.2776 0.16119-0.13433 0.05373-0.29552-1.3701-2.5791-3.0895-6.5015-0.13433-0.29552-0.13433-0.61791 0-0.29552 0.10746-0.56418 0.26866-0.61791 0.8597-0.8597l0.51045-0.21492q0.29552-0.10746 0.59104-0.10746t0.59104 0.13433q0.61791 0.24179 0.8597 0.8597 1.1284 2.794 2.7403 5.8836 0.0806 0.18806 0.26866 0.080597 1.2896-0.75224 3.4119-1.8806 2.1492-1.1552 2.3104-1.2358 0.8597-0.53731 1.209-0.75224z" style="white-space:pre"/>
    <path d="m117.68-11.381q-0.64477-0.13433-0.96716-0.69851-0.24179-0.37612-0.24179-0.7791 0-0.18806 0.0537-0.40298l0.0806-0.24179q0.1612-0.64478 0.72537-0.96716 0.37612-0.21492 0.80597-0.21492 0.18806 0 0.40299 0.05373 3.4388 0.83283 7.791 1.5045 0.64478 0.0806 0.99403 0.61791 0.24179 0.34925 0.24179 0.7791 0 0.16119-0.0537 0.34925l-0.0537 0.26866q-0.16119 0.67164-0.72537 1.0478-0.42985 0.29552-0.91343 0.29552-0.16119 0-0.29552-0.026864-3.6537-0.61791-7.8448-1.5851zm-4.2985 2.9015q0.0537-0.64478 0.53731-1.0478 0.42985-0.34925 0.91344-0.34925 0.10746 0 0.21492 0.026864l0.56418 0.080597q0.61791 0.080597 0.99403 0.59104 0.29552 0.40298 0.29552 0.88657 0 0.13433-0.0269 0.26866-0.37612 2.1224-0.69851 4.6209 0 0.053735 0.0537 0.080596 0.0537 0.026864 0.0806 0 3.5194-2.4716 7.8448-2.4716 3.4657 0 5.5074 1.8269 2.0687 1.8269 2.0687 4.406 0 1.4776-0.45672 2.7134-0.42985 1.209-1.4507 2.2836-1.0209 1.0478-2.5791 1.7194-1.5582 0.69851-3.8955 1.0478-1.6119 0.21493-3.5194 0.21493-0.8597 0-1.8-0.053714-0.6985-0.026891-1.2627-0.48358-0.53732-0.45671-0.75224-1.1552l-0.16119-0.51044q-0.0537-0.1612-0.0537-0.32239 0-0.34926 0.26866-0.64478 0.32239-0.37612 0.80597-0.37612 0.0537 0 0.10746 0 1.5045 0.13433 2.8209 0.13433 3.2239 0 5.2657-0.88656 2.8478-1.2627 2.8478-3.7612 0-1.3164-1.1552-2.1761-1.1284-0.8597-2.9284-0.8597-2.3104 0-4.2716 0.83284-1.9612 0.80597-3.2507 2.3373-0.10746 0.13433-0.18806 0.2418-0.45672 0.59104-1.0746 0.8597-0.40298 0.18805-0.80597 0.18805-0.24179 0-0.48358-0.080592l-0.0806-0.026892q-0.64478-0.16119-0.99403-0.72537-0.29552-0.42985-0.29552-0.91344 0-0.16119 0.0269-0.29552 0.64478-4.0836 0.96716-8.2209z" style="white-space:pre"/>
    <path d="m134.77-11.14q0-0.56418 0.37612-0.99403 0.40298-0.45672 1.0209-0.45672 0 0 0.0269 0h0.99402q0.61791 0 1.0209 0.48358 0.34925 0.40298 0.34925 0.9403 0 0.0806 0 0.16119-0.10746 1.0746-0.10746 1.7463 0 0.61791 0 1.1821 0 2.5254 0.16119 4.594 0.64478 6.6089 2.9284 6.6089 1.2627 0 2.4448-3.8149 0.16119-0.48358 0.64478-0.59104 0.10746-0.026864 0.21492-0.026864 0.34925 0 0.59105 0.29552l0.72537 0.8597q0.45671 0.59104 0.59104 1.2895 0.0269 0.21493 0.0269 0.40299 0 0.51045-0.21493 0.99403-1.1552 2.6597-2.391 3.8149-1.209 1.1284-2.7134 1.1284-2.4179 0-4.1373-2.391-1.6925-2.4179-2.2298-7.603-0.29552-3.0627-0.29552-7.3612zm15.125 1.5582q-0.21492-0.29552-0.21492-0.64478 0-0.18806 0.0537-0.37612 0.1612-0.56418 0.69851-0.72537l0.45671-0.16119q0.34926-0.10746 0.69851-0.10746 0.32239 0 0.67164 0.0806 0.67164 0.21493 1.0478 0.83284 1.3702 2.1493 2.4179 5.2119 1.0478 3.0627 1.4776 5.8298 0.0269 0.1612 0.0269 0.29552 0 0.51045-0.29552 0.99403-0.37612 0.59105-1.0478 0.8597l-0.64477 0.24179q-0.21493 0.080599-0.42985 0.080599-0.32239 0-0.61791-0.18806-0.51045-0.32239-0.59105-0.91343-0.42985-3.1164-1.3701-6.1254-0.9403-3.0358-2.3373-5.1851z" style="white-space:pre"/>
    <path d="m169.78-13.799q0.29553-0.59104 0.91344-0.83283 0.29552-0.13433 0.59104-0.13433 0.32239 0 0.61791 0.13433l0.9403 0.37612q0.56418 0.21493 0.75224 0.80597 0.0537 0.18806 0.0537 0.37612 0 0.37612-0.24179 0.69851-0.37612 0.56418-0.83283 1.2896-0.42985 0.72537-0.99403 1.7194-0.56418 0.96716-0.9403 1.6119-0.34925 0.61791-1.0209 1.8269-0.67165 1.1821-0.83284 1.5045-0.0269 0.026864 0 0.053735 0.0269 0.026864 0.0806 0.026864 1.3701-0.75224 2.9284-0.75224 1.5313 0 2.4179 0.9403 0.88657 0.9403 0.96716 2.6597 0 0.21493 0 2.0418 0.0269 1.8269 0.13433 2.4985 0.10747 1.4776 1.7194 1.4776 1.397 0 2.4448-1.3433 1.0746-1.3433 1.7463-3.5731 0.16119-0.53731 0.69851-0.69851 0.16119-0.053735 0.32239-0.053735 0.34925 0 0.61791 0.21493l0.48357 0.40298q0.56419 0.45672 0.77911 1.1552 0.0806 0.29552 0.0806 0.59104 0 0.37612-0.13432 0.75224-2.4179 6.2866-7.6298 6.2866-2.1224 0-3.2776-1.1015-1.1552-1.0746-1.2358-2.6866-0.0537-0.7791-0.10746-2.5254-0.0269-1.7731-0.0537-2.2567-0.13433-1.5313-1.6119-1.5313-1.3164 0-2.4448 1.1552-1.1015 1.1284-1.8806 2.9552-0.67164 1.397-1.6119 4.5403-0.21492 0.61791-0.7791 0.91344-0.34925 0.16119-0.6985 0.16119-0.2418 0-0.48359-0.080599l-0.8597-0.26865q-0.61791-0.21492-0.88656-0.80597-0.13433-0.29552-0.13433-0.6179 0-0.29552 0.10747-0.56418 1.5582-3.8687 4.406-9.7254 2.8746-5.8836 4.191-8.2746 0.13433-0.24179 0.37612-0.69851 0.24178-0.48358 0.32238-0.64478z" style="white-space:pre"/>
   </g>
   <path d="m-13.5-10.117c-3.0446 1.6686-3.6232 2.805 0.11321 2.6187z" fill="#f86969"/>
   <g stroke-linecap="round" stroke-linejoin="round">
    <path transform="matrix(.96901 .24703 -.24004 .97076 0 0)" d="m-0.77988 3.7681h1.2668c0.14419 0 0.26028 0.11608 0.26028 0.26028v3.1326c0 0.14419-0.11608 0.26028-0.26028 0.26028h-1.2668c-0.14419 0-0.26028-0.11608-0.26028-0.26028v-3.1326c0-0.14419 0.11608-0.26028 0.26028-0.26028z" fill="#f86969" stroke-width=".31013"/>
    <path d="m-10.226-14.655c-2.4704 3.1e-5 -4.4731 2.0027-4.4731 4.4731 9.19e-4 1.5101 0.76368 2.9177 2.0282 3.7431-0.38382 1.7213-0.28693 3.5151 0.28009 5.1851 1.7175 5.0262 7.1843 7.7084 12.21 5.9909 3.7009-0.72779 5.9989-5.0497 9.6843-5.8523 1.9043-0.40595-2.3298-2.1305-5.0672-3.138-3.5324-1.3001-5.2949-1.3487-10.242-6.6117-0.33691-2.1809-2.2139-3.7902-4.4206-3.7902z" stroke-dasharray="1.45813, 0.243021" stroke-width=".24302"/>
    <path transform="matrix(.35693 .93413 -.96549 .26044 0 0)" d="m5.5348 3.5619h0.69609c0.22925 0 0.41381 0.18456 0.41381 0.41381v3.8071c0 0.22925-0.18456 0.41381-0.41381 0.41381h-0.69609c-0.22925 0-0.41381-0.18456-0.41381-0.41381v-3.8071c0-0.22925 0.18456-0.41381 0.41381-0.41381z" fill="#f86969" stroke-width="1.3489"/>
    <path transform="rotate(-57.835)" d="m-6.9884 2.1592h0.99578c0.10542 0 0.19028 0.084866 0.19028 0.19028v1.835c0 0.10542-0.084866 0.19028-0.19028 0.19028h-0.99578c-0.10542 0-0.19028-0.084866-0.19028-0.19028v-1.835c0-0.10542 0.084866-0.19028 0.19028-0.19028z" fill="#f86969" stroke-width="1.633"/>
   </g>
  </g>
 </g>
</svg>
