<?xml version="1.0" encoding="UTF-8"?>
<!-- Created with Inkscape (http://www.inkscape.org/) -->
<svg width="63.856mm" height="10.935mm" version="1.1" viewBox="0 0 63.856 10.935" xmlns="http://www.w3.org/2000/svg">
 <g transform="translate(1.2324 -3.6831)">
  <text transform="matrix(2.8937 0 0 2.8937 1407.3 -627.4)" fill="#f86969" font-family="sans-serif" font-size="40px" style="line-height:1.25;shape-inside:url(#rect15127);white-space:pre" xml:space="preserve"/>
  <g transform="matrix(.59138 0 0 .59138 8.223 12.363)">
   <path d="m-13.987-12.778c-2.4489 2.0761-2.9143 4.0826 0.09106 3.8508z" fill="#f86969"/>
   <path d="m-4.4635-0.10159 0.98737 0.25171c0.11239 0.028651 0.18045 0.14236 0.15261 0.25495l-0.60485 2.4461c-0.027841 0.11259-0.14073 0.18017-0.25312 0.15152l-0.98737-0.25171c-0.11239-0.028651-0.18045-0.14236-0.15261-0.25495l0.60485-2.4461c0.027841-0.11259 0.14073-0.18017 0.25312-0.15152z" fill="#f86969" stroke-linecap="round" stroke-linejoin="round" stroke-width=".24945"/>
   <path d="m-11.032-14.677c-1.9871 2.5e-5 -3.598 1.6109-3.598 3.598 7.39e-4 1.2146 0.61427 2.3469 1.6314 3.0108-0.30873 1.3846-0.23079 2.8274 0.2253 4.1707 1.3815 4.0429 5.7787 6.2003 9.8216 4.8188 2.9768-0.5854 4.8253-4.0618 7.7897-4.7074 1.5317-0.32653-1.874-1.7137-4.0759-2.5241-2.8413-1.0457-4.259-1.0849-8.2383-5.3182-0.271-1.7542-1.7808-3.0487-3.5558-3.0487z" stroke-dasharray="1.17286, 0.195476" stroke-linecap="round" stroke-linejoin="round" stroke-width=".19548"/>
   <g fill="#f86969">
    <path d="m-4.3052 2.016 0.19985 0.52302c0.065819 0.17226-0.024524 0.34959-0.20256 0.39762l-2.9566 0.79754c-0.17804 0.048026-0.37436-0.051986-0.44018-0.22424l-0.19985-0.52302c-0.065819-0.17226 0.024524-0.34959 0.20256-0.39762l2.9566-0.79754c0.17804-0.048026 0.37436 0.051986 0.44018 0.22424z" stroke-linecap="round" stroke-linejoin="round" stroke-width="1.0822"/>
    <path d="m-4.6504 2.7942 0.4264-0.67803c0.045141-0.071779 0.13927-0.093224 0.21105-0.048083l1.2495 0.78577c0.071779 0.045141 0.093224 0.13927 0.048083 0.21105l-0.4264 0.67803c-0.045141 0.071779-0.13927 0.093224-0.21105 0.048083l-1.2495-0.78577c-0.071779-0.045141-0.093224-0.13927-0.048083-0.21105z" stroke-linecap="round" stroke-linejoin="round" stroke-width="1.3135"/>
    <g stroke-width=".35697">
     <path d="m12.867-45.021c-0.61398 1.6135-1.3993 3.1556-2.356 4.5835l0.91384 0.58543c0.99951-1.4993 1.7848-3.1128 2.4417-4.7834zm6.2684-4.4978h-5.226v0.94239l3.5126-0.05711c-0.92812 0.61398-1.742 1.5849-1.742 2.7843 0 2.1846 2.5844 2.7701 2.5844 4.4692 0 1.0566-0.82816 1.5278-1.7991 1.5278-0.69966 0-1.3708-0.2713-1.9847-0.57115l-0.44264 0.85672c0.77105 0.35697 1.5849 0.6711 2.4274 0.6711 1.485 0 2.8415-0.85672 2.8415-2.4559 0-2.2275-2.613-2.8129-2.613-4.5692 0-1.3422 1.5135-2.3274 2.6416-2.7558zm4.612 9.1955c-0.75677-1.8705-1.6992-3.6696-2.7701-5.3973l-0.89956 0.57115c1.0281 1.6563 1.9133 3.4126 2.6273 5.2403z" style="white-space:pre"/>
     <path d="m36.413-42.508c0-2.356-2.0133-3.4412-4.1408-3.4412-0.75677 0-1.485 0.08567-2.1989 0.35697l4.4978-4.1408-0.15707-0.15706h-6.9252v0.88528h4.7691l-6.197 5.8257 0.69966 0.74249c1.742-1.5707 2.5702-2.6701 5.0832-2.6701 1.5278 0 3.4697 0.77105 3.4697 2.5702 0 1.9419-2.2846 2.713-3.8981 2.713-0.91384 0-1.8134-0.18562-2.6987-0.44264l-0.2713 0.9424c1.0138 0.28557 2.0419 0.48548 3.0842 0.48548 2.2418 0 4.8833-1.0709 4.8833-3.6696z" style="white-space:pre"/>
     <path d="m50.805-43.022c-0.29985 1.3136-0.871 3.127-2.4988 3.127-2.1132 0-1.4279-4.0694-4.5263-4.0694-0.54259 0-1.0709 0.22846-1.485 0.55687 0.97095-2.1846 2.099-4.3122 3.1128-6.4825l-0.92812-0.42836c-1.7277 3.6553-3.4983 7.2964-4.9547 11.066l0.98523 0.37125c0.54259-1.3993 1.3565-4.1694 3.1413-4.1694 2.3417 0 1.5278 4.1837 4.6691 4.1837 2.1846 0 3.0842-2.0847 3.5126-3.8838z" style="white-space:pre"/>
    </g>
   </g>
   <g stroke-width=".35697">
    <path d="m64.656-40.152c-1.3565 0.18562-2.6701 0.2713-3.998 0.2713-1.385-0.02856-4.4407 0-4.4407-1.999 0-2.6273 5.8828-4.5263 7.9818-5.2117l-0.34269-0.94239c-1.7991 0.59971-3.5982 1.2137-5.2546 2.1132-0.34269-0.82816-0.35697-2.3417-0.35697-3.2698l0.02856-1.2137h-1.1137l-0.02856 1.2708c0 1.1137 0.04284 2.7558 0.55687 3.7553-1.228 0.75677-2.613 1.9276-2.613 3.5126 0 2.7986 3.6125 3.0128 5.6686 3.0128 1.3136 0 2.613-0.14279 3.9552-0.29985z" style="white-space:pre"/>
    <path d="m79.249-42.365c0-2.1704-2.1275-3.0414-3.998-3.0414-1.6563 0-3.2413 0.59971-4.612 1.5135 0.28557-1.5135 0.68538-4.5692 0.68538-4.5692l-1.1137-0.05712s-0.44264 3.5697-0.85672 5.4116l0.89956 0.51403c1.4421-1.0709 3.1699-1.8134 4.969-1.8134 1.2851 0 2.9129 0.48548 2.9129 2.0419 0 2.1132-2.7415 2.5844-4.3693 2.5844-0.74249 0-1.485-0.05711-2.2418-0.12851v1.0138c0.74249 0.05711 1.4707 0.11423 2.1989 0.11423 2.2418 0 5.5259-0.78533 5.5259-3.584zm-1.4993-7.7391c-2.2132-0.15706-4.6263-0.31413-7.3535-0.32841l-0.09995 0.92812c2.9271-0.01428 5.1118 0.14279 7.4106 0.29985z" style="white-space:pre"/>
    <path d="m87.259-42.265-1.7134 1.7134c-1.5992-1.6135-1.7134-4.712-1.6849-6.8681l0.01428-1.9705h-1.0995l-0.02856 2.2703c0 3.127 0.21418 5.8828 2.7843 8.0246l2.4988-2.5131zm7.1536 0.88528c-0.08567-2.4988-0.69966-4.9547-1.5992-7.2964l-1.0423 0.35697c0.871 2.2132 1.4279 4.5549 1.5278 6.9394z" style="white-space:pre"/>
    <path d="m107.92-43.022c-0.29985 1.3136-0.871 3.127-2.4988 3.127-2.1132 0-1.4279-4.0694-4.5264-4.0694-0.54259 0-1.0709 0.22846-1.485 0.55687 0.97095-2.1846 2.099-4.3122 3.1128-6.4825l-0.92811-0.42836c-1.7277 3.6553-3.4983 7.2964-4.9547 11.066l0.98523 0.37125c0.54259-1.3993 1.3565-4.1694 3.1413-4.1694 2.3417 0 1.5278 4.1837 4.6691 4.1837 2.1846 0 3.0842-2.0847 3.5126-3.8838z" style="white-space:pre"/>
   </g>
   <g fill="#f86969" stroke-width=".36694">
    <path d="m11.089-5.6286c-0.63113 1.6585-1.4384 3.2437-2.4218 4.7114l0.93935 0.60177c1.0274-1.5411 1.8347-3.1997 2.5098-4.9169zm6.4434-4.6234h-5.3719v0.96871l3.6106-0.05871c-0.95403 0.63113-1.7906 1.6292-1.7906 2.8621 0 2.2456 2.6566 2.8474 2.6566 4.594 0 1.0861-0.85129 1.5705-1.8494 1.5705-0.71919 0-1.409-0.27887-2.0402-0.5871l-0.455 0.88064c0.79258 0.36693 1.6292 0.68984 2.4952 0.68984 1.5264 0 2.9208-0.88064 2.9208-2.5245 0-2.2897-2.686-2.8914-2.686-4.6968 0-1.3797 1.5558-2.3924 2.7153-2.8327zm4.7408 9.4522c-0.7779-1.9227-1.7466-3.7721-2.8474-5.5481l-0.92468 0.5871c1.0568 1.7026 1.9668 3.5079 2.7006 5.3866z" style="white-space:pre"/>
    <path d="m35.292-3.0453c0-2.4218-2.0695-3.5373-4.2564-3.5373-0.7779 0-1.5264 0.08806-2.2603 0.36694l4.6234-4.2564-0.16145-0.16145h-7.1185v0.91h4.9022l-6.37 5.9884 0.71919 0.76322c1.7906-1.6145 2.6419-2.7447 5.2252-2.7447 1.5705 0 3.5666 0.79258 3.5666 2.6419 0 1.9961-2.3484 2.7887-4.0069 2.7887-0.93935 0-1.864-0.19081-2.774-0.455l-0.27887 0.96871c1.0421 0.29355 2.0989 0.49903 3.1703 0.49903 2.3044 0 5.0197-1.1008 5.0197-3.7721z" style="white-space:pre"/>
    <path d="m50.087-3.5737c-0.30822 1.3503-0.89532 3.2143-2.5685 3.2143-2.1723 0-1.4677-4.1831-4.6527-4.1831-0.55774 0-1.1008 0.23484-1.5264 0.57242 0.99806-2.2456 2.1576-4.4326 3.1997-6.6635l-0.95403-0.44032c-1.776 3.7574-3.596 7.5001-5.0931 11.375l1.0127 0.38161c0.55774-1.4384 1.3944-4.2858 3.229-4.2858 2.4071 0 1.5705 4.3005 4.7995 4.3005 2.2456 0 3.1703-2.1429 3.6106-3.9922z" style="white-space:pre"/>
   </g>
   <g stroke-width=".36694">
    <path d="m63.157-9.8556h-11.155v0.98338l7.4121-0.05871c-1.9521 0.86597-4.0069 2.7153-4.0069 5.0931 0 1.5705 0.96871 3.0529 2.3484 3.7868 1.3503 0.73387 2.9355 0.71919 4.4472 0.76322l0.02935-1.0127c-1.2035 0.04404-2.4511-0.04404-3.5666-0.51371-1.2182-0.49903-2.0989-1.6732-2.0989-3.0235 0-2.3044 2.1135-3.8161 3.9629-4.6234 0.17613-0.07339 1.0421-0.44032 1.1742-0.44032h1.4531z" style="white-space:pre"/>
    <path d="m70.91-1.9005-1.4677 1.4237c-1.2476-1.3063-1.3356-3.8602-1.3063-7.1772h-1.0568c-0.02935 4.2418 0.10274 6.6635 2.3777 8.5276l2.1576-2.1723zm5.915 0.80726c0-2.3631-0.41097-4.051-1.3944-6.2085l-0.98339 0.3229c0.91 2.0108 1.2769 3.684 1.2769 5.8856z" style="white-space:pre"/>
    <path d="m84.503-1.5776c-0.48435 0.42564-1.2182 0.7779-1.8787 0.7779-0.80726 0-1.409-0.64581-1.409-1.4384 0-1.5852 1.2769-2.8474 2.5979-3.4785 0.05871 1.3944 0.35226 2.774 0.68984 4.139zm2.9648-4.6968c-0.51371 1.3944-1.1742 2.8034-2.0989 3.9629-0.29355-1.2476-0.49903-2.5098-0.54306-3.7868 0.99806-0.27887 1.9374-0.24952 2.6419-0.17613zm4.5206 2.8474c0-1.8494-1.5264-3.0676-3.1556-3.5373l0.26419-0.88064-0.98338-0.29355-0.27887 0.93935c-1.1302-0.1321-2.0989-0.10274-3.0529 0.14677-0.01468-0.66048-0.01468-2.0255-0.01468-2.0255h5.9884v-0.91h-5.9884l0.02935-1.5118h-1.0568l-0.01468 1.5118h-2.9648v0.91h2.9502s0 1.5852 0.04404 2.3484c-1.8494 0.67516-3.5813 2.4071-3.5813 4.4766 0 1.3356 0.99806 2.4511 2.3631 2.4511 0.82193 0 1.5998-0.33758 2.2603-0.79258 0.14677 0.49903 0.30822 0.99806 0.49903 1.4824l0.98339-0.38161c-0.22016-0.5871-0.41097-1.1742-0.5871-1.776 1.2623-1.2769 2.1869-3.1116 2.8034-4.7848 1.2916 0.35226 2.4218 1.3063 2.4218 2.7594 0 1.6879-1.1448 2.7447-2.6566 3.2877l0.39629 0.95403c2.0255-0.76322 3.3318-2.1576 3.3318-4.3739z" style="white-space:pre"/>
   </g>
  </g>
 </g>
</svg>
